<?xml version="1.0" standalone="no"?>
<!DOCTYPE svg PUBLIC "-//W3C//DTD SVG 20010904//EN"
 "http://www.w3.org/TR/2001/REC-SVG-20010904/DTD/svg10.dtd">
<svg version="1.0" xmlns="http://www.w3.org/2000/svg"
 width="467.000000pt" height="331.000000pt" viewBox="0 0 467.000000 331.000000"
 preserveAspectRatio="xMidYMid meet">

<g transform="translate(0.000000,331.000000) scale(0.100000,-0.100000)"
fill="#356851" stroke="none">
<path d="M440 3208 c-69 -48 -75 -64 -75 -218 0 -76 -3 -141 -6 -144 -3 -3
-25 -8 -50 -11 -85 -10 -140 -36 -195 -89 -36 -35 -56 -64 -63 -93 -8 -30 -11
-363 -9 -1155 l3 -1113 22 -47 c29 -63 96 -134 158 -166 l50 -27 860 -3 c593
-2 871 0 897 8 25 7 50 26 75 57 87 107 168 178 251 221 l82 43 0 -146 c0
-101 4 -155 14 -178 21 -50 68 -88 122 -98 51 -10 1871 -12 1942 -2 53 7 100
37 126 83 21 35 21 42 18 1014 -2 750 -5 983 -15 1001 -19 37 -517 544 -551
563 -25 13 -69 17 -224 20 l-193 4 2 192 c2 178 1 194 -19 232 -39 76 -18 74
-654 74 -628 0 -634 -1 -762 -67 -67 -35 -190 -143 -213 -186 -8 -16 -21 -7
-99 70 -100 100 -158 135 -270 163 -72 19 -112 20 -634 20 l-557 0 -33 -22z
m1192 -209 c114 -38 208 -124 250 -228 l23 -56 3 -845 c1 -465 1 -959 0 -1098
l-3 -253 -35 27 c-53 40 -177 94 -250 110 -50 11 -176 14 -552 14 l-488 0 0
1175 0 1175 495 0 c475 0 498 -1 557 -21z m1848 -124 l0 -144 -462 -3 c-442
-3 -465 -4 -497 -23 -19 -11 -43 -33 -55 -48 -21 -28 -21 -32 -26 -1003 l-5
-975 -67 -23 c-68 -24 -167 -79 -219 -123 l-29 -25 2 1098 3 1099 25 60 c29
70 131 180 195 210 90 42 111 43 633 44 l502 1 0 -145z m-3110 -1290 c4 -819
8 -1045 18 -1062 30 -53 30 -53 594 -53 416 0 537 -3 591 -15 72 -15 179 -63
212 -96 20 -19 14 -20 -705 -17 l-725 3 -36 22 c-68 43 -64 -30 -67 1133 -2
773 1 1062 9 1083 7 17 23 30 43 36 66 20 60 110 66 -1034z m3570 682 c0 -265
4 -286 61 -306 20 -7 115 -11 245 -11 l214 0 0 -845 0 -845 -647 -1 c-357 -1
-760 -1 -898 0 l-250 1 -3 1123 -2 1122 640 0 640 0 0 -238z m325 -15 l100
-102 -103 0 -102 0 0 107 c0 58 1 104 3 102 1 -3 47 -51 102 -107z"/>
<path d="M827 2419 c-27 -16 -48 -72 -41 -108 4 -16 17 -40 31 -53 l25 -23
351 -3 c237 -2 364 0 389 8 61 18 85 87 53 149 -8 16 -22 31 -30 35 -30 11
-758 6 -778 -5z"/>
<path d="M828 1915 c-30 -17 -49 -67 -41 -109 3 -14 19 -38 35 -51 l30 -26
375 3 375 3 24 28 c33 38 33 96 0 134 l-24 28 -374 2 c-314 2 -377 0 -400 -12z"/>
<path d="M816 1395 c-30 -32 -37 -70 -23 -114 20 -61 22 -61 440 -59 l379 3
19 24 c28 34 26 102 -5 138 l-24 28 -381 3 -381 3 -24 -26z"/>
<path d="M3260 2311 c-69 -21 -122 -66 -156 -131 -13 -25 -19 -57 -19 -116 0
-72 3 -85 30 -129 80 -130 274 -156 392 -52 56 50 78 100 78 187 0 112 -46
184 -145 229 -46 21 -131 27 -180 12z"/>
<path d="M3075 1716 c-103 -48 -159 -140 -160 -264 0 -62 3 -76 19 -88 16 -11
87 -14 397 -14 366 0 377 1 403 21 23 18 26 27 26 83 0 120 -57 217 -154 262
-49 23 -61 24 -266 24 -205 0 -217 -1 -265 -24z"/>
<path d="M2955 1176 c-56 -25 -72 -105 -31 -153 l24 -28 604 -3 c450 -2 610 1
632 9 34 15 60 69 51 109 -3 15 -17 38 -31 51 l-26 24 -596 2 c-479 2 -603 0
-627 -11z"/>
<path d="M2975 812 c-78 -26 -101 -108 -46 -163 l30 -29 615 2 615 3 23 23
c35 34 32 102 -5 139 l-27 28 -593 2 c-325 1 -601 -2 -612 -5z"/>
</g>
</svg>
